<?xml version="1.0" standalone="no"?>
<!DOCTYPE svg PUBLIC "-//W3C//DTD SVG 20010904//EN"
 "http://www.w3.org/TR/2001/REC-SVG-20010904/DTD/svg10.dtd">
<svg version="1.0" xmlns="http://www.w3.org/2000/svg"
 width="500.000000pt" height="500.000000pt" viewBox="0 0 500.000000 500.000000"
 preserveAspectRatio="xMidYMid meet">

<g transform="translate(0.000000,500.000000) scale(0.100000,-0.100000)"
fill="#000000" stroke="none">
<path d="M0 2500 l0 -2500 2500 0 2500 0 0 2500 0 2500 -2500 0 -2500 0 0
-2500z m2626 1539 c79 -14 131 -45 160 -95 13 -22 24 -44 24 -49 0 -4 -38 -6
-84 -3 -66 3 -89 9 -111 26 -20 16 -41 22 -77 22 -41 0 -54 -5 -79 -29 -39
-40 -40 -89 -1 -132 24 -27 35 -31 80 -32 40 -1 57 4 75 21 20 19 35 22 105
22 77 0 82 -1 82 -21 0 -35 -69 -95 -130 -113 -69 -20 -181 -20 -251 0 -104
31 -149 87 -149 189 0 102 47 161 151 189 66 18 127 19 205 5z m494 -88 c241
-80 308 -129 295 -215 -8 -52 -40 -96 -76 -103 -16 -3 -29 -6 -29 -8 0 -1 7
-15 15 -32 10 -21 13 -44 9 -77 -7 -52 1 -50 -99 -16 -50 17 -50 17 -55 67 -3
28 -11 57 -18 66 -11 13 -121 57 -143 57 -4 0 -15 -22 -24 -50 -9 -27 -20 -50
-24 -50 -20 0 -146 49 -145 56 7 43 121 363 129 361 5 -2 80 -27 165 -56z
m-1015 -136 c96 -80 175 -147 175 -149 0 -5 -134 -46 -151 -46 -7 0 -23 10
-36 22 l-23 22 -108 -34 c-59 -19 -112 -38 -118 -42 -7 -5 -15 -23 -18 -41 -6
-33 -11 -36 -148 -74 -14 -4 -12 10 13 104 16 59 43 160 60 224 l31 116 61 20
c34 12 68 22 75 22 7 1 91 -64 187 -144z m571 -260 c246 -43 470 -160 636
-333 136 -141 226 -296 284 -487 25 -81 28 -109 32 -276 3 -168 2 -196 -18
-275 -96 -385 -372 -694 -731 -818 -352 -120 -726 -68 -1034 144 -227 157
-396 414 -453 685 -25 121 -22 370 6 498 38 179 156 392 295 534 253 260 638
388 983 328z m-596 -2550 c0 -11 -12 -15 -42 -17 l-43 -1 38 -4 c47 -5 49 -23
2 -23 -19 0 -35 -4 -35 -10 0 -5 20 -10 45 -10 33 0 45 -4 45 -15 0 -12 -14
-15 -70 -15 l-70 0 0 55 0 55 65 0 c51 0 65 -3 65 -15z m148 -2 c2 -9 -10 -13
-40 -14 l-43 -1 35 -7 c61 -12 73 -27 44 -55 -15 -16 -69 -21 -98 -10 -22 8
-20 34 2 35 13 0 12 2 -5 9 -25 10 -29 30 -11 48 16 16 110 12 116 -5z m152 2
c0 -8 -9 -15 -20 -15 -17 0 -20 -7 -20 -40 0 -36 -2 -40 -25 -40 -22 0 -25 4
-25 40 0 33 -3 40 -20 40 -11 0 -20 7 -20 15 0 12 14 15 65 15 51 0 65 -3 65
-15z m181 -1 c18 -21 0 -47 -37 -55 l-29 -6 34 -4 c19 -2 36 -10 39 -16 3 -10
-15 -13 -67 -13 -39 0 -71 4 -71 9 0 26 16 42 54 53 l41 13 -42 3 c-24 2 -43
7 -43 12 0 24 101 27 121 4z m146 -10 c15 -24 15 -29 2 -53 -30 -53 -129 -34
-129 25 0 34 26 54 70 54 32 0 43 -5 57 -26z m141 14 c22 -22 14 -47 -20 -57
l-33 -9 33 -1 c21 -1 32 -6 32 -16 0 -12 -14 -15 -66 -15 -61 0 -65 1 -62 21
3 22 10 27 58 47 23 10 21 11 -19 11 -37 1 -42 3 -31 16 15 18 91 20 108 3z
m149 4 c14 -9 14 -72 0 -89 -12 -16 -89 -17 -105 -1 -22 22 -12 31 28 24 37
-6 56 6 28 17 -10 4 -9 8 2 16 12 8 5 11 -29 11 -37 0 -42 2 -31 15 13 16 86
21 107 7z"/>
<path d="M3060 3834 c-17 -43 -12 -49 58 -72 79 -25 115 -28 131 -8 24 29 -7
55 -110 91 -57 20 -68 19 -79 -11z"/>
<path d="M1882 3794 c-17 -68 -22 -94 -19 -94 10 0 103 34 109 39 5 4 -12 26
-36 50 l-45 44 -9 -39z"/>
<path d="M2427 3533 c-3 -3 -44 -7 -90 -9 -86 -3 -198 -36 -166 -48 8 -4 41 5
73 19 32 14 63 24 69 22 6 -2 -8 -11 -31 -20 -23 -9 -42 -21 -42 -26 0 -4 21
-11 46 -15 25 -3 82 -22 127 -41 89 -39 103 -41 132 -22 32 22 127 56 173 63
23 4 45 10 47 14 7 11 -88 46 -155 58 -60 11 -174 14 -183 5z"/>
<path d="M2749 3500 c70 -33 77 -35 86 -20 3 5 -24 18 -61 30 -92 28 -101 24
-25 -10z"/>
<path d="M2049 3417 c-34 -24 -65 -49 -67 -55 -8 -26 36 -10 93 33 33 25 63
45 68 45 4 0 7 5 7 10 0 21 -41 8 -101 -33z"/>
<path d="M2135 3417 c-80 -48 -90 -68 -45 -87 17 -7 33 -17 36 -22 3 -5 -12 0
-35 11 -22 12 -46 21 -54 21 -15 0 -129 -116 -166 -167 -12 -18 -18 -33 -12
-33 6 0 11 -4 11 -10 0 -5 -6 -7 -14 -4 -8 3 -22 -7 -34 -23 -21 -31 -72 -128
-72 -139 0 -8 142 126 150 141 3 6 11 11 19 13 7 2 42 23 77 48 66 47 124 82
184 110 48 22 173 65 177 60 2 -2 -25 -13 -59 -26 -105 -38 -332 -167 -352
-199 -3 -5 1 -12 10 -15 9 -4 14 -9 11 -12 -3 -3 -14 -1 -25 5 -18 10 -31 1
-107 -71 -48 -45 -83 -84 -78 -85 5 -2 38 10 74 26 78 35 169 63 169 52 0 -5
-21 -14 -47 -20 -26 -7 -65 -20 -87 -30 -23 -10 -60 -26 -83 -36 -23 -10 -40
-22 -37 -26 3 -5 -2 -9 -11 -9 -20 0 23 -62 100 -148 l51 -55 42 70 c23 38 42
74 42 80 0 6 3 13 8 15 12 5 112 145 112 157 0 6 -9 11 -20 11 -36 0 -21 15
18 17 31 1 44 10 79 49 27 30 41 55 39 68 -2 12 -1 15 1 9 3 -7 8 -13 11 -13
4 0 48 34 97 76 50 41 112 88 139 103 59 34 47 46 -24 25 -28 -8 -54 -13 -57
-10 -3 3 16 11 42 17 41 10 46 14 31 24 -19 15 -156 60 -206 69 -30 5 -46 0
-105 -37z m-95 -373 c0 -2 -13 2 -30 11 -16 9 -30 18 -30 21 0 2 14 -2 30 -11
17 -9 30 -18 30 -21z m-185 -168 c65 -18 38 -19 -40 -2 -33 8 -49 14 -35 15
14 0 48 -6 75 -13z"/>
<path d="M2740 3449 c-60 -11 -190 -59 -190 -69 0 -5 6 -11 13 -14 6 -3 -3 -3
-20 0 -44 7 -42 -6 5 -32 20 -12 81 -58 133 -103 53 -45 99 -81 102 -81 3 0 7
6 10 13 2 6 3 3 1 -7 -4 -27 62 -103 101 -116 30 -10 39 -7 99 26 36 19 66 39
66 42 0 4 -21 20 -46 36 -25 16 -51 34 -58 41 -21 21 -174 95 -281 136 -120
46 -112 52 12 8 131 -46 296 -134 358 -189 11 -10 27 -20 35 -22 8 -2 17 -7
20 -13 11 -22 150 -147 150 -135 0 18 -65 134 -84 149 -8 7 -21 9 -28 5 -11
-6 -11 -5 0 8 10 12 8 20 -10 44 -36 49 -152 164 -164 164 -7 0 -14 6 -17 14
-7 17 -137 107 -152 105 -5 -1 -30 -5 -55 -10z m185 -121 c-11 -6 -32 -20 -47
-30 -16 -11 -28 -17 -28 -14 0 8 73 56 85 56 5 0 1 -6 -10 -12z m-107 -113
c-6 -14 -13 -23 -15 -21 -5 5 15 46 22 46 3 0 -1 -11 -7 -25z"/>
<path d="M2850 3455 c0 -2 21 -18 47 -36 25 -18 54 -40 65 -51 18 -18 68 -25
68 -9 0 13 -140 101 -162 101 -10 0 -18 -2 -18 -5z"/>
<path d="M1963 3410 c-57 -29 -102 -65 -91 -75 9 -9 64 13 93 38 17 14 41 35
55 46 36 29 12 26 -57 -9z"/>
<path d="M2985 3415 c52 -44 99 -74 130 -81 l30 -7 -23 25 c-25 27 -101 72
-142 82 -24 7 -24 6 5 -19z"/>
<path d="M1860 3255 c-46 -46 -82 -86 -79 -89 2 -2 16 -7 30 -11 24 -6 32 0
72 52 25 32 59 71 76 87 37 35 39 46 8 46 -15 0 -50 -28 -107 -85z"/>
<path d="M2418 3291 c-97 -65 -187 -147 -194 -176 -3 -13 -11 -22 -18 -19 -7
3 -21 -5 -31 -16 -16 -18 -17 -23 -5 -30 12 -8 11 -10 -5 -10 -24 0 -55 -32
-120 -123 -38 -55 -45 -71 -34 -78 11 -7 10 -9 -6 -9 -14 0 -33 -21 -63 -71
-23 -38 -42 -76 -42 -82 0 -7 25 -37 56 -67 l56 -55 30 35 c37 43 111 187 103
200 -4 6 1 10 9 10 8 0 18 -4 21 -10 3 -5 2 -10 -2 -10 -5 0 -19 -21 -32 -47
-13 -27 -43 -81 -68 -121 l-46 -73 44 -47 44 -47 -45 43 c-25 23 -51 42 -57
42 -13 0 -63 -64 -63 -80 0 -6 -4 -9 -9 -6 -5 3 -34 -15 -65 -41 -40 -33 -55
-51 -50 -62 14 -37 14 -44 -1 -18 -8 15 -20 27 -24 27 -5 0 -7 9 -4 20 3 13
-1 22 -11 26 -10 4 -14 13 -11 23 9 28 -33 134 -63 159 l-27 24 28 -17 c28
-16 29 -16 23 3 -11 35 -36 186 -36 222 -1 27 -3 31 -10 19 -10 -18 -35 -119
-45 -179 -2 -19 -10 -60 -16 -90 -26 -128 9 -534 47 -547 13 -4 24 28 24 75 0
70 54 302 70 302 8 0 7 -43 -1 -50 -15 -13 -58 -258 -59 -336 0 -25 213 -115
337 -142 41 -10 42 -9 31 12 -6 11 -23 37 -37 56 -42 56 -82 120 -74 119 5 0
33 -38 63 -85 30 -46 59 -84 63 -84 5 0 18 5 30 10 l22 11 -22 -17 c-25 -18
-20 -44 9 -44 10 0 18 -6 16 -13 -7 -31 153 -186 284 -275 49 -33 94 -41 118
-20 12 11 12 10 1 -4 -18 -25 -7 -35 50 -47 92 -20 97 -18 127 49 15 32 30 59
34 60 4 0 -3 -24 -16 -54 -13 -30 -22 -57 -18 -60 18 -19 234 13 314 47 39 17
148 144 182 214 10 21 22 45 27 53 23 38 32 69 37 123 2 31 2 57 0 57 -3 0
-36 -14 -74 -31 -94 -43 -241 -95 -289 -103 -32 -6 -50 -18 -88 -61 -26 -29
-47 -58 -47 -64 0 -6 -5 -11 -11 -11 -6 0 -46 -31 -88 -69 -69 -61 -121 -99
-121 -87 0 2 39 36 88 74 93 73 198 185 196 208 -1 8 6 14 16 14 25 0 33 27
12 40 -14 9 -13 10 6 5 26 -8 26 -8 98 98 26 37 49 65 52 63 2 -3 -21 -41 -52
-85 -31 -44 -56 -85 -56 -91 0 -5 9 -10 19 -10 32 0 269 86 307 111 l35 24 -6
65 c-3 36 -11 97 -17 136 -6 40 -8 78 -6 85 5 13 30 -118 43 -223 11 -84 36
-58 60 61 17 83 20 127 26 306 l3 90 5 -100 c5 -89 -15 -303 -34 -353 -18 -47
125 68 166 134 19 32 21 44 15 107 -4 39 -9 73 -11 76 -3 2 -15 -5 -28 -16
-12 -11 -29 -24 -37 -28 -8 -4 3 8 25 27 l40 36 -13 46 c-13 52 -67 193 -81
215 -14 21 -61 -15 -61 -48 -1 -23 -2 -24 -11 -8 -8 14 -14 16 -25 6 -8 -7
-14 -7 -14 -1 0 5 7 13 16 16 20 8 14 60 -19 156 -21 62 -22 63 -25 30 -1 -19
-9 -77 -18 -128 -9 -51 -13 -96 -10 -99 3 -3 12 0 21 7 9 7 18 10 21 7 3 -3
-8 -13 -24 -21 -24 -12 -34 -28 -48 -73 -18 -63 -19 -67 -12 -103 3 -14 3 -19
1 -12 -6 16 -20 15 -26 -2 -6 -15 16 -40 26 -30 3 4 19 -4 34 -16 15 -13 20
-20 11 -17 -13 4 -18 1 -19 -11 0 -13 -2 -12 -9 5 -9 22 -43 39 -60 28 -5 -3
-10 0 -10 7 0 7 -12 23 -27 36 l-28 24 31 -21 32 -21 12 30 c11 26 10 38 -8
85 -24 61 -21 76 3 18 17 -41 36 -35 39 14 2 15 7 39 13 53 10 22 22 98 38
245 8 78 3 81 -103 58 -50 -11 -89 -16 -87 -12 3 4 35 12 72 19 38 7 74 16 81
20 15 8 -101 63 -173 82 -25 7 -45 16 -45 21 0 10 21 4 130 -39 46 -18 86 -32
87 -30 2 2 -35 40 -82 85 l-85 81 -60 -30 c-33 -17 -60 -35 -60 -40 0 -6 -9
-10 -19 -10 -22 0 -38 -19 -24 -29 18 -13 119 -161 156 -230 20 -39 42 -71 47
-71 8 0 76 77 138 156 12 16 18 20 13 9 -5 -11 -41 -58 -80 -104 -38 -47 -68
-88 -65 -93 3 -4 0 -8 -7 -8 -7 0 -21 -7 -31 -17 -10 -9 -18 -12 -18 -6 0 5 9
18 20 28 19 17 19 18 -17 84 -19 36 -44 73 -54 83 -11 9 -19 19 -19 23 0 4
-23 40 -52 81 -33 49 -56 73 -65 70 -8 -3 -11 -1 -8 5 10 15 -14 39 -39 39
-17 0 -18 2 -6 10 12 7 11 12 -5 30 -10 11 -25 18 -32 16 -8 -3 -13 2 -13 13
0 11 -28 45 -62 76 -61 55 -201 155 -218 155 -5 0 -41 -22 -82 -49z m125 -218
c-24 -2 -62 -2 -85 0 -24 2 -5 4 42 4 47 0 66 -2 43 -4z m-305 -12 c11 -7 11
-9 -2 -14 -9 -4 -17 -19 -17 -34 -1 -25 -2 -24 -8 7 -10 49 -2 60 27 41z m90
2 c-10 -2 -26 -2 -35 0 -10 3 -2 5 17 5 19 0 27 -2 18 -5z m380 0 c-10 -2 -26
-2 -35 0 -10 3 -2 5 17 5 19 0 27 -2 18 -5z m84 0 c2 -5 1 -24 -3 -43 -6 -31
-7 -32 -8 -7 0 15 -8 30 -17 34 -13 5 -13 7 -2 14 16 11 26 11 30 2z m228 -53
c0 -5 -4 -10 -10 -10 -5 0 -10 5 -10 10 0 6 5 10 10 10 6 0 10 -4 10 -10z
m-822 -49 c12 -7 20 -16 17 -21 -3 -5 -16 -1 -28 10 -12 11 -31 27 -42 36 -19
15 -19 15 5 2 14 -8 35 -20 48 -27z m662 25 c0 -2 -16 -16 -35 -30 -22 -17
-35 -22 -35 -14 0 7 15 20 33 29 17 9 33 17 35 18 1 0 2 -1 2 -3z m-615 -56
c3 -5 1 -10 -4 -10 -6 0 -11 5 -11 10 0 6 2 10 4 10 3 0 8 -4 11 -10z m562
-32 c-3 -8 -6 -5 -6 6 -1 11 2 17 5 13 3 -3 4 -12 1 -19z m-447 -54 c0 -3 -20
9 -45 26 -25 17 -45 33 -45 36 0 3 20 -9 45 -26 25 -17 45 -33 45 -36z m360
52 c0 -2 -18 -15 -40 -30 -22 -14 -40 -24 -40 -22 0 5 71 56 77 56 2 0 3 -2 3
-4z m133 -108 c-10 -17 -31 -7 -26 11 4 16 8 17 18 8 7 -7 11 -15 8 -19z
m-308 -18 c-10 -11 -23 -20 -29 -20 -6 0 0 9 14 20 32 25 38 25 15 0z m417
-181 l26 -34 36 34 c45 43 48 29 4 -16 l-32 -33 39 -40 c22 -22 45 -38 53 -35
7 3 10 0 7 -6 -4 -6 1 -20 11 -32 29 -34 -33 19 -77 67 -21 22 -41 36 -48 32
-7 -5 -11 1 -11 14 0 12 -14 39 -30 61 -32 39 -90 146 -90 164 1 6 20 -24 43
-66 23 -42 54 -91 69 -110z m-445 94 c17 3 21 1 15 -5 -13 -13 -72 -2 -98 17
-16 12 -12 12 20 -1 22 -9 50 -14 63 -11z m647 -113 c-7 -6 -24 22 -23 40 0 9
6 5 14 -10 7 -14 11 -27 9 -30z m223 -37 c-3 -10 -5 -2 -5 17 0 19 2 27 5 18
2 -10 2 -26 0 -35z m-452 -53 c-16 -16 -31 -27 -34 -24 -6 6 45 54 56 54 4 0
-6 -13 -22 -30z m-522 -5 c-3 -9 -8 -14 -10 -11 -3 3 -2 9 2 15 9 16 15 13 8
-4z m187 -5 c6 -11 8 -20 6 -20 -3 0 -10 9 -16 20 -6 11 -8 20 -6 20 3 0 10
-9 16 -20z m-414 -82 l29 -33 -32 29 c-31 28 -38 36 -30 36 2 0 16 -15 33 -32z
m-96 -14 c0 -2 -13 2 -30 11 -16 9 -30 18 -30 21 0 2 14 -2 30 -11 17 -9 30
-18 30 -21z m740 11 c-13 -14 -26 -22 -29 -19 -3 3 5 14 19 24 34 27 38 25 10
-5z m45 -35 c-3 -5 -12 -10 -18 -10 -7 0 -6 4 3 10 19 12 23 12 15 0z m-559
-49 c15 12 16 12 10 -7 -5 -18 -1 -24 22 -32 16 -5 29 -17 29 -26 0 -13 -5
-13 -32 4 -25 15 -34 17 -44 7 -10 -9 -11 -8 -6 5 5 12 -3 22 -32 37 -21 11
-32 20 -24 21 8 0 11 6 6 17 -4 12 5 7 24 -11 27 -26 32 -27 47 -15z m444 24
c-10 -12 -10 -15 1 -15 8 -1 -3 -10 -24 -21 -31 -17 -37 -24 -31 -42 6 -21 5
-21 -8 -4 -13 18 -15 17 -43 -5 -16 -12 -26 -17 -21 -10 4 7 2 12 -6 13 -7 0
2 7 20 15 17 8 32 21 32 29 0 8 6 12 14 9 7 -3 26 6 42 20 33 29 42 33 24 11z
m413 -23 c-3 -12 -9 -22 -14 -22 -5 0 -3 11 3 25 13 30 20 28 11 -3z m-1217
-239 c-6 -6 -96 161 -96 178 0 8 23 -28 50 -80 28 -52 48 -96 46 -98z m1164
127 c-17 -33 -33 -60 -35 -60 -3 0 8 27 25 60 17 33 33 60 35 60 3 0 -8 -27
-25 -60z m-576 19 c-8 -14 -24 -10 -24 6 0 9 6 12 15 9 8 -4 12 -10 9 -15z
m-59 1 c3 -5 -1 -10 -9 -10 -8 0 -18 5 -21 10 -3 6 1 10 9 10 8 0 18 -4 21
-10z m-65 -15 c7 -9 18 -14 24 -12 7 3 12 -4 12 -14 0 -11 -1 -19 -2 -19 -1 0
-17 13 -35 30 -19 16 -29 30 -23 30 6 0 17 -7 24 -15z m190 11 c0 -2 -8 -10
-17 -17 -16 -13 -17 -12 -4 4 13 16 21 21 21 13z m-40 -36 c0 -4 -6 -10 -14
-13 -10 -4 -12 0 -9 14 5 18 23 18 23 -1z m-215 -101 c-39 -39 -86 -84 -107
-100 -31 -25 -36 -27 -31 -9 3 11 13 20 22 20 9 0 52 36 96 80 44 44 82 80 84
80 3 0 -26 -32 -64 -71z m160 61 c-3 -5 -12 -10 -18 -10 -7 0 -6 4 3 10 19 12
23 12 15 0z m115 -25 c19 -19 32 -35 29 -35 -3 0 -20 16 -39 35 -19 19 -32 35
-29 35 3 0 20 -16 39 -35z m430 -25 c-6 -11 -13 -20 -16 -20 -2 0 0 9 6 20 6
11 13 20 16 20 2 0 0 -9 -6 -20z m-292 -100 c7 0 12 -2 12 -4 0 -2 3 -13 7
-23 4 -11 -13 -1 -45 25 -29 24 -52 49 -52 55 0 6 15 -3 33 -21 18 -18 38 -32
45 -32z m52 -50 c0 -5 -2 -10 -4 -10 -3 0 -8 5 -11 10 -3 6 -1 10 4 10 6 0 11
-4 11 -10z m-603 -57 c-3 -10 -5 -2 -5 17 0 19 2 27 5 18 2 -10 2 -26 0 -35z
m570 10 c-3 -10 -5 -4 -5 12 0 17 2 24 5 18 2 -7 2 -21 0 -30z m-542 -62 l30
-7 -30 -5 c-16 -3 -41 1 -55 8 l-25 13 25 -1 c14 -1 39 -4 55 -8z m580 2 c-11
-3 -24 -8 -28 -12 -4 -5 -20 -6 -35 -3 l-27 6 25 7 c14 4 39 7 55 7 20 0 23
-2 10 -5z m-482 -20 c-13 -2 -33 -2 -45 0 -13 2 -3 4 22 4 25 0 35 -2 23 -4z
m360 0 c-13 -2 -33 -2 -45 0 -13 2 -3 4 22 4 25 0 35 -2 23 -4z m-140 -10
c-35 -2 -91 -2 -125 0 -35 2 -7 3 62 3 69 0 97 -1 63 -3z m544 1 c-3 -3 -12
-4 -19 -1 -8 3 -5 6 6 6 11 1 17 -2 13 -5z m61 -11 c-10 -2 -26 -2 -35 0 -10
3 -2 5 17 5 19 0 27 -2 18 -5z"/>
<path d="M3010 3333 c0 -3 21 -29 48 -57 26 -28 62 -68 79 -89 27 -31 37 -36
58 -31 14 3 25 12 25 19 0 7 -36 47 -80 89 -56 53 -87 76 -105 76 -14 0 -25
-3 -25 -7z"/>
<path d="M1848 3305 c-26 -15 -68 -72 -68 -94 0 -7 25 12 55 43 69 68 72 83
13 51z"/>
<path d="M3120 3313 c0 -5 25 -33 57 -63 l56 -55 -25 45 c-23 41 -88 95 -88
73z"/>
<path d="M1729 3220 l-44 -39 32 -1 c28 0 35 6 53 40 11 22 16 40 11 40 -4 0
-28 -18 -52 -40z"/>
<path d="M3220 3256 c0 -3 8 -21 17 -41 14 -30 21 -35 52 -35 l35 0 -34 30
c-38 33 -70 54 -70 46z"/>
<path d="M1646 3141 c-20 -22 -19 -106 1 -106 10 0 93 107 93 120 0 3 -17 5
-38 5 -26 0 -45 -7 -56 -19z"/>
<path d="M3260 3155 c0 -2 18 -28 40 -57 22 -29 40 -56 40 -60 0 -13 28 -9 33
5 3 6 3 -4 0 -23 -4 -27 2 -44 24 -75 16 -22 41 -69 57 -105 16 -36 33 -69 38
-75 12 -13 47 33 48 63 0 30 -34 62 -66 62 -14 0 -23 4 -19 10 3 6 17 7 31 4
13 -3 24 -3 24 1 0 9 -47 90 -84 144 -26 39 -30 42 -37 25 -6 -16 -8 -14 -8 9
-1 15 -8 39 -17 52 -13 20 -25 25 -60 25 -24 0 -44 -2 -44 -5z"/>
<path d="M1752 3133 c-12 -23 -32 -117 -32 -151 0 -21 11 -9 51 62 41 70 49
90 38 97 -22 14 -48 10 -57 -8z"/>
<path d="M3191 3141 c-11 -7 -12 -13 -4 -23 6 -7 29 -47 52 -88 35 -65 41 -71
41 -45 0 26 -6 56 -25 143 -6 23 -37 30 -64 13z"/>
<path d="M1573 3049 c-35 -51 -73 -123 -73 -139 0 -6 10 -8 25 -4 15 4 25 2
25 -5 0 -6 -11 -11 -23 -11 -24 0 -49 -22 -60 -51 -6 -17 20 -79 34 -79 11 0
69 114 69 135 0 8 3 15 8 15 4 0 19 21 33 48 26 46 26 48 9 91 l-17 44 -30
-44z"/>
<path d="M1684 3040 c-25 -37 -27 -45 -16 -73 l12 -32 -18 23 -18 24 -17 -25
c-9 -14 -18 -32 -19 -39 -2 -7 -6 -15 -9 -18 -8 -6 -49 -87 -49 -95 0 -3 26
12 58 35 31 23 57 46 57 51 0 5 7 14 15 19 13 8 43 157 34 168 -1 2 -15 -15
-30 -38z"/>
<path d="M3285 3060 c3 -10 9 -48 13 -82 l8 -63 22 43 23 43 -28 39 c-30 43
-48 52 -38 20z"/>
<path d="M3335 2948 c-13 -22 -15 -33 -7 -36 7 -2 12 -11 12 -20 1 -14 97 -92
114 -92 6 0 -88 180 -94 180 -3 0 -14 -14 -25 -32z"/>
<path d="M1715 2815 c8 -75 33 -220 45 -260 5 -16 14 -43 19 -60 l9 -30 20 48
c12 26 23 47 24 47 2 0 3 -13 3 -29 0 -16 -4 -29 -9 -28 -17 3 -36 -71 -26
-98 11 -28 16 -29 48 -11 32 17 152 137 152 151 0 6 -22 33 -49 59 -34 33 -55
47 -66 42 -12 -4 -15 -2 -11 12 4 13 -9 36 -41 74 -27 30 -65 75 -86 99 l-38
44 6 -60z m141 -222 c-8 -15 -15 -25 -16 -21 0 12 23 58 27 54 3 -2 -2 -17
-11 -33z m54 -129 c0 -2 -9 0 -20 6 -11 6 -20 13 -20 16 0 2 9 0 20 -6 11 -6
20 -13 20 -16z"/>
<path d="M3340 2851 c0 -5 10 -22 23 -38 13 -15 34 -46 47 -68 13 -22 25 -42
27 -44 5 -7 43 31 43 44 0 11 -42 48 -107 94 -18 12 -33 18 -33 12z"/>
<path d="M1619 2832 c-14 -9 -43 -34 -64 -54 -39 -36 -39 -37 -21 -57 11 -12
22 -21 26 -21 3 0 25 30 49 66 23 37 44 64 47 62 3 -3 -14 -35 -37 -72 -40
-64 -41 -67 -24 -86 10 -11 21 -20 25 -20 11 0 51 165 44 183 -8 21 -13 21
-45 -1z"/>
<path d="M3335 2813 c3 -10 11 -40 16 -68 6 -27 14 -61 20 -74 9 -23 10 -23
29 -6 11 10 20 23 20 28 0 12 -80 137 -87 137 -3 0 -2 -8 2 -17z"/>
<path d="M1441 2749 c-21 -93 -23 -104 -18 -99 3 3 21 26 40 51 l35 46 -23 29
-22 28 -12 -55z"/>
<path d="M3524 2765 c-15 -23 -14 -26 20 -71 l36 -47 -6 34 c-10 54 -24 109
-29 109 -3 0 -12 -11 -21 -25z"/>
<path d="M1486 2643 c-37 -117 -48 -162 -41 -183 11 -34 20 -22 44 53 13 39
34 94 48 120 23 47 23 50 7 68 -9 10 -21 19 -25 19 -4 0 -19 -35 -33 -77z"/>
<path d="M3460 2705 c-11 -14 -12 -22 -1 -48 7 -18 27 -73 44 -124 18 -51 37
-91 42 -89 18 6 6 112 -22 192 -29 82 -42 95 -63 69z"/>
<path d="M1450 2656 c-19 -29 -30 -57 -30 -80 0 -60 14 -47 41 40 15 46 25 84
23 84 -2 0 -17 -20 -34 -44z"/>
<path d="M3520 2693 c0 -20 45 -153 52 -153 18 0 6 74 -18 116 -25 43 -34 52
-34 37z"/>
<path d="M1541 2613 c-28 -56 -61 -166 -61 -203 0 -10 16 -32 35 -49 42 -37
30 -42 -13 -6 l-30 25 -6 -31 c-3 -18 -6 -58 -6 -91 l0 -59 75 -75 c73 -71
115 -95 100 -57 -3 10 -13 63 -22 118 -17 113 -18 240 -2 363 10 75 9 85 -7
103 -9 10 -21 19 -25 19 -5 0 -22 -26 -38 -57z"/>
<path d="M1385 2486 c-7 -53 2 -143 12 -132 11 11 22 112 16 148 -8 54 -20 47
-28 -16z"/>
<path d="M3586 2503 c-3 -21 0 -67 6 -103 11 -58 13 -62 19 -35 14 62 7 175
-11 175 -4 0 -10 -17 -14 -37z"/>
<path d="M1427 2395 c-9 -65 -8 -117 2 -133 12 -19 25 143 13 164 -7 12 -11 5
-15 -31z"/>
<path d="M3556 2422 c-4 -7 -4 -49 0 -93 8 -90 24 -89 23 1 -1 67 -12 110 -23
92z"/>
<path d="M3601 2274 c0 -11 3 -14 6 -6 3 7 2 16 -1 19 -3 4 -6 -2 -5 -13z"/>
<path d="M1421 2208 c0 -13 4 -41 8 -63 9 -40 9 -40 10 17 0 31 -3 60 -9 63
-6 3 -10 -4 -9 -17z"/>
<path d="M3563 2214 c-10 -27 -78 -99 -146 -153 -56 -45 -59 -49 -93 -151 -19
-57 -33 -107 -32 -112 7 -19 126 51 170 101 44 48 78 126 78 176 0 9 3 14 8
12 4 -3 6 16 5 41 -2 39 -1 42 6 17 7 -28 8 -26 15 23 8 54 2 80 -11 46z"/>
<path d="M1455 2164 c2 -16 7 -49 10 -74 18 -135 69 -215 168 -265 88 -43 88
-42 40 110 -24 75 -29 83 -81 120 -30 22 -74 62 -98 89 -42 46 -44 47 -39 20z"/>
<path d="M1441 2084 c0 -11 3 -14 6 -6 3 7 2 16 -1 19 -3 4 -6 -2 -5 -13z"/>
<path d="M1670 1983 c0 -10 5 -25 10 -33 8 -12 10 -9 10 12 0 15 -4 30 -10 33
-5 3 -10 -2 -10 -12z"/>
<path d="M3322 1991 c-8 -5 -12 -21 -10 -37 3 -29 3 -29 15 9 6 20 10 37 10
37 -1 0 -8 -4 -15 -9z"/>
<path d="M1710 1923 c0 -51 31 -133 50 -133 6 0 9 -4 5 -9 -16 -27 141 -232
199 -259 41 -20 203 -52 265 -52 57 0 57 0 36 55 -4 11 3 4 17 -15 23 -33 27
-35 79 -33 53 3 109 19 109 32 0 4 -28 25 -62 48 -35 23 -88 64 -120 92 -31
28 -61 51 -67 51 -6 0 -11 6 -11 13 -1 6 -22 36 -49 65 -42 48 -52 54 -89 55
-23 1 -42 5 -42 9 0 3 -37 19 -82 34 -46 15 -116 42 -157 61 -40 18 -75 33
-77 33 -2 0 -4 -21 -4 -47z m260 -113 c-8 -5 -22 -9 -30 -9 -10 0 -8 3 5 9 27
12 43 12 25 0z m-97 -27 c-7 -2 -21 -2 -30 0 -10 3 -4 5 12 5 17 0 24 -2 18
-5z m354 -135 c-3 -8 -6 -5 -6 6 -1 11 2 17 5 13 3 -3 4 -12 1 -19z m33 -93
c0 -5 -5 -3 -10 5 -5 8 -10 20 -10 25 0 6 5 3 10 -5 5 -8 10 -19 10 -25z"/>
<path d="M1550 1854 c0 -21 70 -111 131 -168 65 -62 98 -82 86 -53 -3 6 -15
37 -27 67 -32 81 -32 81 -73 95 -21 7 -56 25 -77 39 -22 15 -40 23 -40 20z"/>
<path d="M3420 1836 c-19 -13 -53 -29 -75 -36 -51 -18 -59 -26 -74 -78 -15
-55 -25 -49 -12 7 5 22 8 41 7 41 -2 0 -26 -35 -55 -77 -28 -43 -64 -94 -79
-112 -15 -19 -22 -33 -17 -30 65 33 86 46 90 59 3 8 14 26 25 40 l21 25 -7
-29 -7 -30 29 21 c43 32 127 122 163 176 18 26 31 47 29 46 -2 0 -19 -10 -38
-23z"/>
<path d="M1730 1777 c0 -2 8 -28 19 -58 35 -101 51 -125 98 -148 50 -24 50
-24 -19 66 -26 36 -57 82 -68 104 -17 33 -30 48 -30 36z"/>
<path d="M1850 1540 c0 -16 77 -69 131 -90 l54 -21 -45 40 c-44 39 -140 88
-140 71z"/>
<path d="M3116 1534 c-50 -18 -143 -88 -122 -92 21 -4 84 30 131 72 45 40 45
40 -9 20z"/>
<path d="M1995 1488 c3 -8 25 -26 48 -42 40 -27 46 -27 137 -23 52 3 103 8
112 12 33 13 7 25 -55 25 -61 1 -194 21 -230 35 -12 5 -16 3 -12 -7z"/>
<path d="M2950 1484 c-30 -8 -99 -17 -153 -21 -54 -3 -100 -9 -102 -13 -8 -13
80 -30 152 -30 59 0 76 4 116 30 26 16 47 34 47 40 0 5 -1 10 -2 9 -2 -1 -28
-7 -58 -15z"/>
<path d="M2403 1459 c-29 -11 -53 -24 -53 -28 0 -14 41 -51 80 -71 51 -26 90
-25 148 4 43 22 91 62 81 69 -67 45 -180 57 -256 26z"/>
<path d="M2328 1453 c7 -3 16 -2 19 1 4 3 -2 6 -13 5 -11 0 -14 -3 -6 -6z"/>
<path d="M2274 1414 c-7 -3 -41 -8 -75 -13 l-64 -8 47 -21 c50 -22 121 -37
228 -47 l65 -6 -40 22 c-22 12 -56 35 -76 50 -35 27 -59 34 -85 23z"/>
<path d="M2655 1401 c-11 -11 -45 -34 -75 -50 -62 -35 -56 -36 75 -20 51 6
118 23 155 38 l65 26 -55 6 c-30 3 -75 9 -100 13 -38 6 -48 4 -65 -13z"/>
<path d="M2158 943 c7 -3 16 -2 19 1 4 3 -2 6 -13 5 -11 0 -14 -3 -6 -6z"/>
<path d="M2630 964 c0 -33 33 -30 38 4 3 17 -2 22 -17 22 -16 0 -21 -6 -21
-26z"/>
</g>
</svg>
